<?xml version="1.0" encoding="UTF-8" standalone="no"?>
<!-- Created with Inkscape (http://www.inkscape.org/) -->

<svg
   width="800"
   height="800"
   viewBox="0 0 211.66666 211.66667"
   version="1.1"
   id="svg1"
   xml:space="preserve"
   inkscape:export-filename="SOURCE.svg"
   inkscape:export-xdpi="96"
   inkscape:export-ydpi="96"
   inkscape:version="1.3 (0e150ed6c4, 2023-07-21)"
   sodipodi:docname="SOURCE.svg"
   xmlns:inkscape="http://www.inkscape.org/namespaces/inkscape"
   xmlns:sodipodi="http://sodipodi.sourceforge.net/DTD/sodipodi-0.dtd"
   xmlns:xlink="http://www.w3.org/1999/xlink"
   xmlns="http://www.w3.org/2000/svg"
   xmlns:svg="http://www.w3.org/2000/svg"><sodipodi:namedview
     id="namedview1"
     pagecolor="#ffffff"
     bordercolor="#000000"
     borderopacity="0.25"
     inkscape:showpageshadow="2"
     inkscape:pageopacity="0.0"
     inkscape:pagecheckerboard="0"
     inkscape:deskcolor="#d1d1d1"
     inkscape:document-units="mm"
     showgrid="true"
     inkscape:zoom="0.98394782"
     inkscape:cx="463.43921"
     inkscape:cy="343.006"
     inkscape:window-width="1920"
     inkscape:window-height="991"
     inkscape:window-x="-9"
     inkscape:window-y="1341"
     inkscape:window-maximized="1"
     inkscape:current-layer="layer1" /><defs
     id="defs1"><linearGradient
       id="linearGradient409"
       inkscape:collect="always"><stop
         style="stop-color:#ffffff;stop-opacity:1;"
         offset="0"
         id="stop409" /><stop
         style="stop-color:#f9f9f9;stop-opacity:0;"
         offset="1"
         id="stop410" /></linearGradient><radialGradient
       inkscape:collect="always"
       xlink:href="#linearGradient409"
       id="radialGradient410"
       cx="259.35382"
       cy="41.916248"
       fx="259.35382"
       fy="41.916248"
       r="4.4368463"
       gradientTransform="matrix(0.74503258,0,0,0.39515833,-67.763123,180.40159)"
       gradientUnits="userSpaceOnUse" /><filter
       inkscape:collect="always"
       style="color-interpolation-filters:sRGB"
       id="filter416"
       x="-0.07089984"
       y="-0.07089984"
       width="1.1417997"
       height="1.1417997"><feGaussianBlur
         inkscape:collect="always"
         stdDeviation="0.39081077"
         id="feGaussianBlur416" /></filter><radialGradient
       inkscape:collect="always"
       xlink:href="#linearGradient409"
       id="radialGradient418"
       gradientUnits="userSpaceOnUse"
       gradientTransform="matrix(0.74503258,0,0,0.39515833,-67.763123,180.40159)"
       cx="259.35382"
       cy="41.916248"
       fx="259.35382"
       fy="41.916248"
       r="4.4368463" /></defs><g
     inkscape:label="图层 1"
     inkscape:groupmode="layer"
     id="layer1"><g
       id="g413"
       inkscape:label="Board"><rect
         style="font-variation-settings:'wght' 700;fill:#ca8f49;fill-opacity:1;stroke:#1a1a1a;stroke-width:1.5;stroke-dasharray:none"
         id="rect1"
         width="210.16667"
         height="210.16667"
         x="0.75"
         y="0.75" /><path
         style="font-variation-settings:'wght' 700;fill:none;stroke:#1a1a1a;stroke-width:0.8;stroke-opacity:1;stroke-dasharray:none"
         d="M 13.229167,13.229167 H 198.43751 V 198.4375 H 13.229167 Z"
         id="path1" /><path
         style="font-variation-settings:'wght' 700;fill:none;stroke:#1a1a1a;stroke-width:0.499999;stroke-opacity:1"
         d="M 26.458336,13.229167 V 198.4375"
         id="path2" /><path
         style="font-variation-settings:'wght' 700;fill:none;stroke:#1a1a1a;stroke-width:0.499999;stroke-opacity:1"
         d="M 39.687502,13.229168 V 198.4375"
         id="path3" /><path
         style="font-variation-settings:'wght' 700;fill:none;stroke:#1a1a1a;stroke-width:0.499999;stroke-opacity:1"
         d="M 52.916671,13.229167 V 198.4375"
         id="path4" /><path
         style="font-variation-settings:'wght' 700;fill:none;stroke:#1a1a1a;stroke-width:0.499999;stroke-opacity:1"
         d="M 66.145837,13.229168 V 198.4375"
         id="path5" /><path
         style="font-variation-settings:'wght' 700;fill:none;stroke:#1a1a1a;stroke-width:0.499999;stroke-opacity:1"
         d="M 79.375003,13.229167 V 198.4375"
         id="path6" /><path
         style="font-variation-settings:'wght' 700;fill:none;stroke:#1a1a1a;stroke-width:0.499999;stroke-opacity:1"
         d="M 92.604169,13.229168 V 198.4375"
         id="path7" /><path
         style="font-variation-settings:'wght' 700;fill:none;stroke:#1a1a1a;stroke-width:0.499999;stroke-opacity:1"
         d="M 105.83334,13.229167 V 198.4375"
         id="path8" /><path
         style="font-variation-settings:'wght' 700;fill:none;stroke:#1a1a1a;stroke-width:0.499999;stroke-opacity:1"
         d="M 119.0625,13.229168 V 198.4375"
         id="path9" /><path
         style="font-variation-settings:'wght' 700;fill:none;stroke:#1a1a1a;stroke-width:0.499999;stroke-opacity:1"
         d="M 132.29168,13.229168 V 198.4375"
         id="path10" /><path
         style="font-variation-settings:'wght' 700;fill:none;stroke:#1a1a1a;stroke-width:0.499999;stroke-opacity:1"
         d="M 145.52084,13.229167 V 198.4375"
         id="path11" /><path
         style="font-variation-settings:'wght' 700;fill:none;stroke:#1a1a1a;stroke-width:0.499999;stroke-opacity:1"
         d="M 158.75001,13.229168 V 198.4375"
         id="path12" /><path
         style="font-variation-settings:'wght' 700;fill:none;stroke:#1a1a1a;stroke-width:0.499999;stroke-opacity:1"
         d="M 171.97918,13.229167 V 198.4375"
         id="path13" /><path
         style="font-variation-settings:'wght' 700;fill:none;stroke:#1a1a1a;stroke-width:0.499999;stroke-opacity:1"
         d="M 185.20834,13.229168 V 198.4375"
         id="path14" /><path
         style="font-variation-settings:'wght' 700;fill:none;stroke:#1a1a1a;stroke-width:0.499999;stroke-opacity:1"
         d="M 13.229169,185.20833 H 198.43751"
         id="path15" /><path
         style="font-variation-settings:'wght' 700;fill:none;stroke:#1a1a1a;stroke-width:0.499999;stroke-opacity:1"
         d="M 13.229169,171.97916 H 198.43751"
         id="path16" /><path
         style="font-variation-settings:'wght' 700;fill:none;stroke:#1a1a1a;stroke-width:0.499999;stroke-opacity:1"
         d="M 13.229169,158.74999 H 198.43751"
         id="path17" /><path
         style="font-variation-settings:'wght' 700;fill:none;stroke:#1a1a1a;stroke-width:0.499999;stroke-opacity:1"
         d="M 13.229169,145.52083 H 198.43751"
         id="path18" /><path
         style="font-variation-settings:'wght' 700;fill:none;stroke:#1a1a1a;stroke-width:0.499999;stroke-opacity:1"
         d="M 13.229169,132.29166 H 198.43751"
         id="path19" /><path
         style="font-variation-settings:'wght' 700;fill:none;stroke:#1a1a1a;stroke-width:0.499999;stroke-opacity:1"
         d="M 13.229169,119.0625 H 198.43751"
         id="path20" /><path
         style="font-variation-settings:'wght' 700;fill:none;stroke:#1a1a1a;stroke-width:0.499999;stroke-opacity:1"
         d="M 13.229169,105.83333 H 198.43751"
         id="path21" /><path
         style="font-variation-settings:'wght' 700;fill:none;stroke:#1a1a1a;stroke-width:0.499999;stroke-opacity:1"
         d="M 13.229169,92.604175 H 198.43751"
         id="path22" /><path
         style="font-variation-settings:'wght' 700;fill:none;stroke:#1a1a1a;stroke-width:0.499999;stroke-opacity:1"
         d="M 13.229169,79.374994 H 198.43751"
         id="path23" /><path
         style="font-variation-settings:'wght' 700;fill:none;stroke:#1a1a1a;stroke-width:0.499999;stroke-opacity:1"
         d="M 13.229169,66.145834 H 198.43751"
         id="path24" /><path
         style="font-variation-settings:'wght' 700;fill:none;stroke:#1a1a1a;stroke-width:0.499999;stroke-opacity:1"
         d="M 13.229169,52.916664 H 198.43751"
         id="path25" /><path
         style="font-variation-settings:'wght' 700;fill:none;stroke:#1a1a1a;stroke-width:0.499999;stroke-opacity:1"
         d="M 13.229169,39.687494 H 198.43751"
         id="path26" /><path
         style="font-variation-settings:'wght' 700;fill:none;stroke:#1a1a1a;stroke-width:0.499999;stroke-opacity:1"
         d="M 13.229169,26.458334 H 198.43751"
         id="path27" /><ellipse
         style="font-variation-settings:'wght' 700;fill:#000000;stroke:none;stroke-width:0.1138"
         id="path28"
         cx="105.83334"
         cy="105.83334"
         rx="1.5054885"
         ry="1.5054883" /><path
         d="m 204.07115,195.72883 v 5.36202 h -0.91457 v -4.31838 l -0.68223,0.32083 v -0.98832 l 0.66748,-0.37615 z m 2.34174,5.41734 q -0.57161,0 -0.88875,-0.30978 -0.31715,-0.30977 -0.31715,-0.874 v -0.24708 h 0.91456 v 0.24708 q 0,0.13276 0.0774,0.20652 0.0774,0.0737 0.21389,0.0737 0.14013,0 0.22127,-0.0774 0.0811,-0.0774 0.0811,-0.21389 v -1.23909 q 0,-0.12539 -0.0664,-0.19177 -0.0664,-0.0701 -0.18808,-0.0701 -0.11432,0 -0.1807,0.0627 -0.0627,0.059 -0.059,0.17332 H 205.325 v -2.95759 h 2.2606 v 0.89982 h -1.34604 v 1.11739 q 0.11801,-0.0996 0.25077,-0.1512 0.13645,-0.0516 0.2729,-0.0516 0.41303,0 0.63798,0.30609 0.22864,0.30608 0.22864,0.86294 v 1.23909 q 0,0.56792 -0.32083,0.88138 -0.31715,0.31346 -0.89613,0.31346 z"
         id="text331"
         style="font-size:7.55256px;font-family:Bahnschrift;-inkscape-font-specification:'Bahnschrift, @wght=700';font-variation-settings:'wght' 700;stroke-width:1.5"
         aria-label="15" /><path
         d="m 203.88677,182.52547 v 5.36203 h -0.91457 v -4.31839 l -0.68224,0.32084 v -0.98832 l 0.66749,-0.37616 z m 1.06207,4.53965 v -0.84818 l 1.10634,-3.68778 h 0.95882 l -1.05839,3.64352 h 1.85863 v 0.89244 z m 1.68163,0.82606 v -2.95759 h 0.88506 v 2.95759 z"
         id="text332"
         style="font-size:7.55256px;font-family:Bahnschrift;-inkscape-font-specification:'Bahnschrift, @wght=700';font-variation-settings:'wght' 700;stroke-width:1.5"
         aria-label="14" /><path
         d="m 204.10249,169.29816 v 5.36203 h -0.91456 v -4.31839 l -0.68224,0.32084 v -0.98832 l 0.66749,-0.37616 z m 2.24217,5.41734 q -0.39828,0 -0.68593,-0.14382 -0.28395,-0.14382 -0.43515,-0.41303 -0.1512,-0.2729 -0.1512,-0.65642 v -0.32822 h 0.92194 v 0.30978 q 0,0.15857 0.0922,0.24339 0.0922,0.0848 0.25814,0.0848 0.15857,0 0.24708,-0.0922 0.0922,-0.0922 0.0922,-0.25814 v -0.76337 q 0,-0.18439 -0.0922,-0.28027 -0.0922,-0.0996 -0.25446,-0.0996 h -0.29133 v -0.89982 h 0.29133 q 0.1217,0 0.18808,-0.0885 0.0701,-0.0885 0.0701,-0.25077 v -0.6638 q 0,-0.12907 -0.0664,-0.19914 -0.0664,-0.0701 -0.18439,-0.0701 -0.12538,0 -0.19914,0.0738 -0.0701,0.0701 -0.0701,0.20283 v 0.36508 h -0.91825 v -0.36508 q 0,-0.56423 0.31715,-0.87032 0.31714,-0.30977 0.88506,-0.30977 0.54948,0 0.84819,0.30977 0.3024,0.30609 0.3024,0.86663 v 0.71543 q 0,0.20651 -0.13645,0.39827 -0.13276,0.18808 -0.37615,0.32822 0.28395,0.0922 0.44253,0.29871 0.15857,0.20651 0.15857,0.49047 v 0.815 q 0,0.59742 -0.3319,0.92563 -0.32821,0.32452 -0.92194,0.32452 z"
         id="text333"
         style="font-size:7.55256px;font-family:Bahnschrift;-inkscape-font-specification:'Bahnschrift, @wght=700';font-variation-settings:'wght' 700;stroke-width:1.5"
         aria-label="13" /><path
         d="m 204.06192,156.09664 v 5.36202 h -0.91457 v -4.31838 l -0.68224,0.32084 v -0.98833 l 0.66749,-0.37615 z m 1.09158,5.36202 v -0.83712 l 1.08052,-1.88077 q 0.24708,-0.42778 0.3614,-0.76336 0.11432,-0.33559 0.11432,-0.58267 v -0.0701 q 0,-0.19545 -0.0738,-0.28765 -0.0738,-0.0959 -0.23602,-0.0959 -0.1807,0 -0.26552,0.11801 -0.0811,0.11801 -0.0811,0.36878 v 0.19176 H 205.124 v -0.19176 q 0,-0.70068 0.30977,-1.04364 0.31346,-0.34297 0.94776,-0.34297 0.6343,0 0.94407,0.32084 0.31346,0.31715 0.31346,0.9662 v 0.0701 q 0,0.29502 -0.12907,0.68223 -0.12907,0.38353 -0.3909,0.87401 l -0.85188,1.60418 h 1.36448 v 0.89981 z"
         id="text334"
         style="font-size:7.55256px;font-family:Bahnschrift;-inkscape-font-specification:'Bahnschrift, @wght=700';font-variation-settings:'wght' 700;stroke-width:1.5"
         aria-label="12" /><path
         d="m 204.5948,142.83982 v 5.36202 h -0.91456 v -4.31838 l -0.68224,0.32084 v -0.98833 l 0.66748,-0.37615 z m 2.51138,0 v 5.36202 h -0.91457 v -4.31838 l -0.68224,0.32084 v -0.98833 l 0.66749,-0.37615 z"
         id="text335"
         style="font-size:7.55256px;font-family:Bahnschrift;-inkscape-font-specification:'Bahnschrift, @wght=700';font-variation-settings:'wght' 700;stroke-width:1.5"
         aria-label="11" /><path
         d="m 204.04349,129.61065 v 5.36202 h -0.91457 v -4.31838 l -0.68224,0.32084 v -0.98833 l 0.66749,-0.37615 z m 2.37492,5.41734 q -0.59004,0 -0.91456,-0.33559 -0.32453,-0.33927 -0.32453,-0.95513 v -2.89122 q 0,-0.61586 0.32453,-0.95144 0.32452,-0.33928 0.91456,-0.33928 0.59005,0 0.91457,0.33928 0.32453,0.33558 0.32453,0.95144 v 2.89122 q 0,0.61586 -0.32453,0.95513 -0.32452,0.33559 -0.91457,0.33559 z m 0,-0.89982 q 0.1512,0 0.23602,-0.10326 0.0885,-0.10325 0.0885,-0.28764 v -2.89122 q 0,-0.18439 -0.0885,-0.28764 -0.0848,-0.10326 -0.23602,-0.10326 -0.14751,0 -0.23601,0.10326 -0.0885,0.10325 -0.0885,0.28764 v 2.89122 q 0,0.18439 0.0885,0.28764 0.0885,0.10326 0.23601,0.10326 z"
         id="text336"
         style="font-size:7.55256px;font-family:Bahnschrift;-inkscape-font-specification:'Bahnschrift, @wght=700';font-variation-settings:'wght' 700;stroke-width:1.5"
         aria-label="10" /><path
         d="m 204.23525,121.76933 0.96989,-2.67363 0.29133,0.13276 q -0.12538,0.17332 -0.29502,0.2692 -0.16595,0.0959 -0.34296,0.0959 -0.49785,0 -0.77443,-0.30609 -0.2729,-0.30977 -0.2729,-0.874 v -0.78918 q 0,-0.6048 0.32452,-0.9367 0.32822,-0.3319 0.91826,-0.3319 0.59004,0 0.91457,0.32821 0.32452,0.32822 0.32452,0.93301 v 0.70436 q 0,0.4241 -0.0996,0.73387 -0.0996,0.30609 -0.22864,0.65643 l -0.75599,2.05777 z m 0.81869,-3.05347 q 0.16226,0 0.25077,-0.0959 0.0922,-0.0996 0.0922,-0.2692 v -0.756 q 0,-0.18439 -0.0922,-0.2692 -0.0885,-0.0885 -0.25077,-0.0885 -0.16226,0 -0.25446,0.0885 -0.0922,0.0848 -0.0922,0.2692 v 0.75968 q 0,0.16964 0.0922,0.26552 0.0922,0.0959 0.25446,0.0959 z"
         id="text337"
         style="font-size:7.55256px;font-family:Bahnschrift;-inkscape-font-specification:'Bahnschrift, @wght=700';font-variation-settings:'wght' 700;stroke-width:1.5"
         aria-label="9" /><path
         d="m 205.05209,108.56966 q -0.3909,0 -0.67117,-0.13645 -0.27658,-0.14013 -0.42409,-0.40197 -0.14751,-0.26551 -0.14751,-0.63798 v -0.84819 q 0,-0.29133 0.16595,-0.52366 0.16963,-0.23233 0.47203,-0.3614 -0.27658,-0.10695 -0.43147,-0.29503 -0.15489,-0.18807 -0.15489,-0.4204 v -0.75231 q 0,-0.52366 0.31346,-0.80762 0.31715,-0.28765 0.87769,-0.28765 0.56792,0 0.87769,0.28765 0.31347,0.28396 0.31347,0.80762 v 0.75231 q 0,0.23602 -0.15858,0.42409 -0.15489,0.18439 -0.43884,0.29134 0.30977,0.12907 0.47941,0.3614 0.16963,0.23233 0.16963,0.52366 v 0.84819 q 0,0.37247 -0.14751,0.63798 -0.14751,0.26184 -0.42409,0.40197 -0.27658,0.13645 -0.67118,0.13645 z m 0,-0.88138 q 0.16595,0 0.25815,-0.0848 0.0922,-0.0848 0.0922,-0.23233 V 106.475 q 0,-0.15857 -0.0922,-0.24708 -0.0922,-0.0885 -0.25815,-0.0885 -0.16226,0 -0.25445,0.0885 -0.0922,0.0885 -0.0922,0.25077 v 0.89982 q 0,0.14751 0.0922,0.22864 0.0959,0.0811 0.25445,0.0811 z m 0,-2.41918 q 0.1512,0 0.23233,-0.0959 0.0848,-0.0996 0.0848,-0.26921 v -0.61217 q 0,-0.15488 -0.0848,-0.24339 -0.0811,-0.0885 -0.23233,-0.0885 -0.14751,0 -0.23232,0.0885 -0.0848,0.0885 -0.0848,0.24708 v 0.61586 q 0,0.16964 0.0848,0.26552 0.0848,0.0922 0.23232,0.0922 z"
         id="text338"
         style="font-size:7.55256px;font-family:Bahnschrift;-inkscape-font-specification:'Bahnschrift, @wght=700';font-variation-settings:'wght' 700;stroke-width:1.5"
         aria-label="8" /><path
         d="m 206.27459,89.923157 v 0.674862 l -0.96251,4.68716 h -0.9035 l 0.93669,-4.550712 h -0.64167 v 0.623234 h -0.874 v -1.434544 z"
         id="text339"
         style="font-size:7.55256px;font-family:Bahnschrift;-inkscape-font-specification:'Bahnschrift, @wght=700';font-variation-settings:'wght' 700;stroke-width:1.5"
         aria-label="7" /><path
         d="m 205.05025,82.081826 q -0.59004,0 -0.91457,-0.328212 -0.32452,-0.331899 -0.32452,-0.936694 v -0.700677 q 0,-0.424094 0.0848,-0.719116 0.0885,-0.295022 0.22495,-0.630609 l 0.84082,-2.098343 h 0.97357 l -1.03627,2.673635 -0.29133,-0.132759 q 0.26183,-0.36509 0.62692,-0.36509 0.50154,0 0.77812,0.309773 0.28027,0.306085 0.28027,0.870314 v 0.789184 q 0,0.601107 -0.32821,0.936694 -0.32452,0.3319 -0.91457,0.3319 z m 0,-0.881378 q 0.16595,0 0.25446,-0.09219 0.0922,-0.0922 0.0922,-0.276583 v -0.741243 q 0,-0.173325 -0.0922,-0.265519 -0.0885,-0.09588 -0.25446,-0.09588 -0.15857,0 -0.25077,0.09588 -0.0922,0.09588 -0.0922,0.269207 v 0.737555 q 0,0.184388 0.0922,0.276583 0.0922,0.09219 0.25077,0.09219 z"
         id="text340"
         style="font-size:7.55256px;font-family:Bahnschrift;-inkscape-font-specification:'Bahnschrift, @wght=700';font-variation-settings:'wght' 700;stroke-width:1.5"
         aria-label="6" /><path
         d="m 205.04656,68.854503 q -0.5716,0 -0.88875,-0.309773 -0.31715,-0.309773 -0.31715,-0.874002 v -0.247081 h 0.91457 v 0.247081 q 0,0.13276 0.0774,0.206515 0.0774,0.07376 0.21389,0.07376 0.14014,0 0.22127,-0.07744 0.0811,-0.07744 0.0811,-0.213891 v -1.239092 q 0,-0.125384 -0.0664,-0.191764 -0.0664,-0.07007 -0.18807,-0.07007 -0.11433,0 -0.1807,0.06269 -0.0627,0.059 -0.059,0.173325 h -0.89613 v -2.957594 h 2.26061 v 0.899817 h -1.34604 v 1.117395 q 0.11801,-0.09957 0.25077,-0.151198 0.13645,-0.05163 0.27289,-0.05163 0.41303,0 0.63799,0.306085 0.22864,0.306085 0.22864,0.862939 v 1.239092 q 0,0.567917 -0.32084,0.881378 -0.31714,0.31346 -0.89613,0.31346 z"
         id="text341"
         style="font-size:7.55256px;font-family:Bahnschrift;-inkscape-font-specification:'Bahnschrift, @wght=700';font-variation-settings:'wght' 700;stroke-width:1.5"
         aria-label="5" /><path
         d="m 203.6194,54.771617 v -0.848188 l 1.10633,-3.687773 h 0.95882 l -1.05839,3.64352 h 1.85864 v 0.892441 z m 1.68163,0.826061 v -2.957594 h 0.88506 v 2.957594 z"
         id="text342"
         style="font-size:7.55256px;font-family:Bahnschrift;-inkscape-font-specification:'Bahnschrift, @wght=700';font-variation-settings:'wght' 700;stroke-width:1.5"
         aria-label="4" /><path
         d="m 205.06131,42.423828 q -0.39828,0 -0.68592,-0.143823 -0.28396,-0.143824 -0.43516,-0.413031 -0.1512,-0.272895 -0.1512,-0.656424 v -0.328211 h 0.92195 v 0.309772 q 0,0.158575 0.0922,0.243394 0.0922,0.08482 0.25814,0.08482 0.15858,0 0.24708,-0.09219 0.0922,-0.09219 0.0922,-0.258144 v -0.763369 q 0,-0.184389 -0.0922,-0.280271 -0.0922,-0.09957 -0.25445,-0.09957 h -0.29134 v -0.899817 h 0.29134 q 0.12169,0 0.18807,-0.08851 0.0701,-0.08851 0.0701,-0.250769 v -0.663799 q 0,-0.129072 -0.0664,-0.19914 -0.0664,-0.07007 -0.18439,-0.07007 -0.12538,0 -0.19914,0.07375 -0.0701,0.07007 -0.0701,0.202828 v 0.365089 h -0.91826 V 38.13126 q 0,-0.56423 0.31715,-0.870315 0.31715,-0.309773 0.88506,-0.309773 0.54948,0 0.84819,0.309773 0.3024,0.306085 0.3024,0.866627 V 38.843 q 0,0.206515 -0.13645,0.398279 -0.13276,0.188077 -0.37615,0.328212 0.28396,0.0922 0.44253,0.29871 0.15858,0.206515 0.15858,0.490474 v 0.814998 q 0,0.597419 -0.3319,0.925631 -0.32821,0.324524 -0.92195,0.324524 z"
         id="text343"
         style="font-size:7.55256px;font-family:Bahnschrift;-inkscape-font-specification:'Bahnschrift, @wght=700';font-variation-settings:'wght' 700;stroke-width:1.5"
         aria-label="3" /><path
         d="m 203.82406,29.167004 v -0.837125 l 1.08052,-1.880764 q 0.24708,-0.427782 0.3614,-0.763369 0.11432,-0.335588 0.11432,-0.582669 v -0.07007 q 0,-0.195452 -0.0738,-0.287647 -0.0738,-0.09588 -0.23601,-0.09588 -0.1807,0 -0.26552,0.118009 -0.0811,0.118009 -0.0811,0.368777 v 0.191765 h -0.92932 v -0.191765 q 0,-0.700677 0.30977,-1.04364 0.31346,-0.342962 0.94776,-0.342962 0.63429,0 0.94407,0.320836 0.31346,0.317148 0.31346,0.966196 v 0.07007 q 0,0.295022 -0.12907,0.682238 -0.12908,0.383529 -0.39091,0.874003 l -0.85187,1.604181 h 1.36447 v 0.899817 z"
         id="text344"
         style="font-size:7.55256px;font-family:Bahnschrift;-inkscape-font-specification:'Bahnschrift, @wght=700';font-variation-settings:'wght' 700;stroke-width:1.5"
         aria-label="2" /><path
         d="m 205.8505,10.548156 v 5.362022 h -0.91457 v -4.318382 l -0.68224,0.320836 v -0.988323 l 0.66749,-0.376153 z"
         id="text345"
         style="font-size:7.55256px;font-family:Bahnschrift;-inkscape-font-specification:'Bahnschrift, @wght=700';font-variation-settings:'wght' 700;stroke-width:1.5"
         aria-label="1" /><path
         d="m 198.43751,9.3509108 q -0.43147,0 -0.74125,-0.1475109 -0.30608,-0.1511987 -0.46834,-0.4314695 -0.16227,-0.2839586 -0.16227,-0.6822381 V 5.1394736 q 0,-0.4019673 0.16227,-0.682238 0.16226,-0.2839586 0.46834,-0.4314695 0.30978,-0.147511 0.74125,-0.147511 0.43147,0 0.73755,0.147511 0.30977,0.1475109 0.47204,0.4314695 0.16226,0.2802707 0.16226,0.682238 v 2.9502187 q 0,0.3982795 -0.16226,0.6822381 -0.16227,0.2802708 -0.47204,0.4314695 -0.30608,0.1475109 -0.73755,0.1475109 z m 0,-0.9145678 q 0.21389,0 0.32821,-0.1216965 0.11801,-0.1216965 0.11801,-0.3429629 V 5.2501068 q 0,-0.2175786 -0.11801,-0.3392751 -0.11432,-0.1216965 -0.32821,-0.1216965 -0.21021,0 -0.32822,0.1216965 -0.11432,0.1216965 -0.11432,0.3392751 v 2.7215768 q 0,0.2212664 0.11432,0.3429629 0.11801,0.1216965 0.32822,0.1216965 z"
         id="text346"
         style="font-size:7.55256px;font-family:Bahnschrift;-inkscape-font-specification:'Bahnschrift, @wght=700';font-variation-settings:'wght' 700;stroke-width:1.5"
         aria-label="O" /><path
         d="M 183.85124,9.2937508 V 3.9354161 h 0.71911 l 1.26122,3.5771402 -0.0996,0.1438232 V 3.9354161 h 0.83344 v 5.3583347 h -0.72649 l -1.24647,-3.3706248 0.0959,-0.1475109 v 3.5181357 z"
         id="text347"
         style="font-size:7.55256px;font-family:Bahnschrift;-inkscape-font-specification:'Bahnschrift, @wght=700';font-variation-settings:'wght' 700;stroke-width:1.5"
         aria-label="N" /><path
         d="m 171.97918,6.8469127 0.91088,-2.913341 h 0.85556 v 5.3620225 h -0.815 v -3.74309 l 0.0553,0.2360175 -0.77812,2.5593148 h -0.45729 l -0.77812,-2.4855593 0.0738,-0.309773 v 3.74309 h -0.83344 V 3.9335717 h 0.87769 z"
         id="text348"
         style="font-size:7.55256px;font-family:Bahnschrift;-inkscape-font-specification:'Bahnschrift, @wght=700';font-variation-settings:'wght' 700;stroke-width:1.5"
         aria-label="M" /><path
         d="M 157.59573,9.2955942 V 3.9335717 h 0.91457 v 5.3620225 z m 0.37615,0 v -0.87769 h 1.9324 v 0.87769 z"
         id="text349"
         style="font-size:7.55256px;font-family:Bahnschrift;-inkscape-font-specification:'Bahnschrift, @wght=700';font-variation-settings:'wght' 700;stroke-width:1.5"
         aria-label="L" /><path
         d="M 144.76115,8.4437186 V 6.8174105 l 1.04364,-2.8838388 h 1.03258 z m -0.72649,0.8518756 V 3.9335717 h 0.91457 v 5.3620225 z m 1.96927,0 -0.90719,-2.928092 0.62692,-0.5494783 1.28335,3.4775703 z"
         id="text350"
         style="font-size:7.55256px;font-family:Bahnschrift;-inkscape-font-specification:'Bahnschrift, @wght=700';font-variation-settings:'wght' 700;stroke-width:1.5"
         aria-label="K" /><path
         d="m 132.23082,9.3232533 q -0.34665,0 -0.63798,-0.1438232 -0.29134,-0.1438231 -0.47572,-0.405655 l 0.60848,-0.634297 q 0.0959,0.1253843 0.20651,0.1917642 0.11064,0.06638 0.23602,0.06638 0.18808,0 0.28396,-0.095882 0.0996,-0.09957 0.0996,-0.2913341 V 3.9059142 h 0.91457 v 4.215125 q 0,0.5716049 -0.32453,0.8887534 -0.32452,0.3134607 -0.91088,0.3134607 z"
         id="text351"
         style="font-size:7.55256px;font-family:Bahnschrift;-inkscape-font-specification:'Bahnschrift, @wght=700';font-variation-settings:'wght' 700;stroke-width:1.5"
         aria-label="J" /><path
         d="m 119.51979,3.9335717 v 5.3620225 h -0.91456 V 3.9335717 Z"
         id="text352"
         style="font-size:7.55256px;font-family:Bahnschrift;-inkscape-font-specification:'Bahnschrift, @wght=700';font-variation-settings:'wght' 700;stroke-width:1.5"
         aria-label="I" /><path
         d="M 106.19474,9.2955942 V 3.9335717 h 0.91457 v 5.3620225 z m -1.63737,0 V 3.9335717 h 0.91457 v 5.3620225 z m 0.43516,-2.212664 V 6.223679 h 1.79594 v 0.8592512 z"
         id="text353"
         style="font-size:7.55256px;font-family:Bahnschrift;-inkscape-font-specification:'Bahnschrift, @wght=700';font-variation-settings:'wght' 700;stroke-width:1.5"
         aria-label="H" /><path
         d="m 92.5968,6.4006921 h 1.346037 v 1.6041814 q 0,0.424094 -0.158574,0.7264914 -0.154887,0.2987096 -0.453596,0.4609717 -0.295022,0.1585742 -0.715428,0.1585742 -0.424094,0 -0.726492,-0.1548865 Q 91.58635,9.0411379 91.424088,8.7498038 91.265513,8.4547819 91.265513,8.0417513 V 5.2611702 q 0,-0.4351573 0.154887,-0.7449303 0.158574,-0.3097729 0.457284,-0.472035 0.298709,-0.1659498 0.715428,-0.1659498 0.41303,0 0.704365,0.1585743 0.291334,0.1585743 0.44622,0.4609717 0.154887,0.2987096 0.154887,0.7228035 V 5.6336353 H 92.958201 V 5.2206046 q 0,-0.1954519 -0.09957,-0.3060851 -0.09957,-0.1106332 -0.26552,-0.1106332 -0.184389,0 -0.291334,0.1253843 -0.106946,0.1216965 -0.106946,0.3318996 v 2.7805811 q 0,0.1733253 0.110634,0.276583 0.114321,0.1032576 0.309773,0.1032576 0.202827,0 0.317148,-0.1069454 0.114321,-0.1106332 0.114321,-0.3023974 V 7.2783822 H 92.5968 Z"
         id="text354"
         style="font-size:7.55256px;font-family:Bahnschrift;-inkscape-font-specification:'Bahnschrift, @wght=700';font-variation-settings:'wght' 700;stroke-width:1.5"
         aria-label="G" /><path
         d="M 78.27708,9.0103827 V 3.6483602 h 0.914567 V 9.0103827 Z M 78.686422,6.8345964 V 5.9569063 h 1.792258 v 0.8776901 z m 0,-2.3085462 v -0.87769 h 1.976647 v 0.87769 z"
         id="text355"
         style="font-size:7.55256px;font-family:Bahnschrift;-inkscape-font-specification:'Bahnschrift, @wght=700';font-variation-settings:'wght' 700;stroke-width:1.5"
         aria-label="F" /><path
         d="M 64.954684,9.2955942 V 3.9335717 h 0.914568 v 5.3620225 z m 0.405655,0 V 8.4031531 h 1.976647 v 0.8924411 z m 0,-2.2200396 V 6.1868013 h 1.792258 v 0.8887533 z m 0,-2.2495417 V 3.9335717 h 1.976647 v 0.8924412 z"
         id="text356"
         style="font-size:7.55256px;font-family:Bahnschrift;-inkscape-font-specification:'Bahnschrift, @wght=700';font-variation-settings:'wght' 700;stroke-width:1.5"
         aria-label="E" /><path
         d="m 52.223369,9.2955942 v -0.87769 h 0.685926 q 0.184388,0 0.283958,-0.1106332 0.09957,-0.114321 0.09957,-0.3171486 V 5.2390435 q 0,-0.2065153 -0.09957,-0.3171485 -0.09957,-0.1106332 -0.283958,-0.1106332 H 52.223369 V 3.9335717 h 0.77812 q 0.578981,0 0.896129,0.3171486 0.320836,0.3134607 0.320836,0.8850656 v 2.9575942 q 0,0.3798407 -0.143823,0.6490481 -0.143823,0.2692075 -0.416718,0.4130306 -0.272895,0.1401354 -0.660112,0.1401354 z m -0.608483,0 V 3.9335717 h 0.914568 v 5.3620225 z"
         id="text357"
         style="font-size:7.55256px;font-family:Bahnschrift;-inkscape-font-specification:'Bahnschrift, @wght=700';font-variation-settings:'wght' 700;stroke-width:1.5"
         aria-label="D" /><path
         d="m 39.687503,9.3509108 q -0.405655,0 -0.693302,-0.1585742 Q 38.706555,9.0300745 38.551669,8.7239893 38.40047,8.4179042 38.40047,7.9864347 V 5.2427313 q 0,-0.4351573 0.151199,-0.7375547 0.154886,-0.3060852 0.442532,-0.4646594 0.287647,-0.1622621 0.693302,-0.1622621 0.409343,0 0.696989,0.1622621 0.287646,0.1585742 0.438845,0.4646594 0.151199,0.3060852 0.151199,0.7412425 V 5.6778885 H 40.048905 V 5.2464191 q 0,-0.1364477 -0.04057,-0.2323298 -0.04057,-0.09957 -0.121697,-0.1548864 -0.08113,-0.055317 -0.199139,-0.055317 -0.16595,0 -0.261832,0.1180087 -0.09588,0.114321 -0.09588,0.3208363 v 2.7437034 q 0,0.2065153 0.09588,0.3208363 0.09588,0.1143209 0.261832,0.1143209 0.177013,0 0.269207,-0.1143209 0.09219,-0.1180088 0.09219,-0.3245241 V 7.5512774 h 0.925631 v 0.4314695 q 0,0.4351573 -0.151199,0.7412424 -0.151199,0.3060852 -0.438845,0.4683473 -0.287646,0.1585742 -0.696989,0.1585742 z"
         id="text358"
         style="font-size:7.55256px;font-family:Bahnschrift;-inkscape-font-specification:'Bahnschrift, @wght=700';font-variation-settings:'wght' 700;stroke-width:1.5"
         aria-label="C" /><path
         d="M 25.680214,9.2955942 V 8.436343 h 0.803935 q 0.169637,0 0.261832,-0.088507 0.09588,-0.092194 0.09588,-0.2544564 V 7.3742643 q 0,-0.1991398 -0.09588,-0.309773 -0.09588,-0.1106332 -0.276583,-0.1106332 H 25.680214 V 6.1056703 h 0.767057 q 0.162262,0 0.250769,-0.1032577 0.09219,-0.1032577 0.09219,-0.2950219 V 5.1320981 q 0,-0.162262 -0.09219,-0.2507686 -0.08851,-0.092194 -0.247081,-0.092194 H 25.680214 V 3.9335717 h 0.862939 q 0.545791,0 0.8445,0.2913341 0.302398,0.2876464 0.302398,0.814998 v 0.5752926 q 0,0.3650896 -0.206516,0.6011071 -0.202827,0.2323297 -0.575292,0.2950218 0.405655,0.055317 0.626921,0.2987097 0.224954,0.243393 0.224954,0.6379848 v 0.7301791 q 0,0.5310394 -0.298709,0.8260612 -0.295022,0.2913341 -0.837125,0.2913341 z m -0.523664,0 V 3.9335717 h 0.918256 v 5.3620225 z"
         id="text359"
         style="font-size:7.55256px;font-family:Bahnschrift;-inkscape-font-specification:'Bahnschrift, @wght=700';font-variation-settings:'wght' 700;stroke-width:1.5"
         aria-label="B" /><path
         d="m 11.628674,9.2955942 1.279657,-5.3620225 h 0.641673 l 1.279657,5.3620225 h -0.907192 l -0.693302,-3.514448 -0.693301,3.514448 z M 12.498988,8.4621574 V 7.606594 h 1.460359 v 0.8555634 z"
         id="text360"
         style="font-size:7.55256px;font-family:Bahnschrift;-inkscape-font-specification:'Bahnschrift, @wght=700';font-variation-settings:'wght' 700;stroke-width:1.5"
         aria-label="A" /><path
         d="m 5.633636,195.72883 v 5.36202 H 4.7190682 v -4.31838 l -0.6822381,0.32083 v -0.98832 l 0.667487,-0.37615 z m 2.3417362,5.41734 q -0.5716049,0 -0.8887534,-0.30978 -0.3171485,-0.30977 -0.3171485,-0.874 v -0.24708 h 0.9145678 v 0.24708 q 0,0.13276 0.077443,0.20652 0.077443,0.0737 0.2138909,0.0737 0.1401353,0 0.2212664,-0.0774 0.081131,-0.0774 0.081131,-0.21389 v -1.23909 q 0,-0.12539 -0.06638,-0.19177 -0.06638,-0.0701 -0.1880764,-0.0701 -0.114321,0 -0.1807009,0.0627 -0.062692,0.059 -0.059004,0.17332 H 6.887479 v -2.95759 h 2.2606051 v 0.89982 H 7.8020468 v 1.11739 q 0.1180088,-0.0996 0.2507686,-0.1512 0.1364476,-0.0516 0.2728952,-0.0516 0.4130306,0 0.6379848,0.30609 0.228642,0.30608 0.228642,0.86294 v 1.23909 q 0,0.56792 -0.3208363,0.88138 -0.3171485,0.31346 -0.8961289,0.31346 z"
         id="text374"
         style="font-size:7.55256px;font-family:Bahnschrift;-inkscape-font-specification:'Bahnschrift, @wght=700';font-variation-settings:'wght' 700;stroke-width:1.5"
         aria-label="15" /><path
         d="m 5.4492488,182.52547 v 5.36203 H 4.534681 v -4.31839 l -0.6822381,0.32084 v -0.98832 l 0.667487,-0.37616 z m 1.0620788,4.53965 v -0.84818 l 1.106332,-3.68778 h 0.9588211 l -1.058391,3.64352 h 1.8586378 v 0.89244 z m 1.6816246,0.82606 v -2.95759 h 0.8850656 v 2.95759 z"
         id="text375"
         style="font-size:7.55256px;font-family:Bahnschrift;-inkscape-font-specification:'Bahnschrift, @wght=700';font-variation-settings:'wght' 700;stroke-width:1.5"
         aria-label="14" /><path
         d="m 5.6649775,169.29816 v 5.36203 H 4.7504097 v -4.31839 l -0.682238,0.32084 v -0.98832 l 0.6674869,-0.37616 z m 2.2421663,5.41734 q -0.3982795,0 -0.6859258,-0.14382 -0.2839586,-0.14382 -0.4351573,-0.41303 -0.1511987,-0.2729 -0.1511987,-0.65642 v -0.32822 h 0.9219434 v 0.30978 q 0,0.15857 0.092194,0.24339 0.092194,0.0848 0.2581441,0.0848 0.1585743,0 0.2470808,-0.0922 0.092194,-0.0922 0.092194,-0.25814 v -0.76337 q 0,-0.18439 -0.092194,-0.28027 -0.092194,-0.0996 -0.2544563,-0.0996 H 7.6084342 v -0.89982 h 0.2913341 q 0.1216965,0 0.1880764,-0.0885 0.070068,-0.0885 0.070068,-0.25077 v -0.6638 q 0,-0.12907 -0.06638,-0.19914 -0.06638,-0.0701 -0.1843887,-0.0701 -0.1253843,0 -0.1991397,0.0738 -0.070068,0.0701 -0.070068,0.20283 v 0.36508 H 6.7196808 v -0.36508 q 0,-0.56423 0.3171485,-0.87032 0.3171485,-0.30977 0.8850656,-0.30977 0.5494782,0 0.8481879,0.30977 0.3023974,0.30609 0.3023974,0.86663 v 0.71543 q 0,0.20651 -0.1364476,0.39827 -0.1327598,0.18808 -0.3761529,0.32822 0.2839586,0.0922 0.4425328,0.29871 0.1585743,0.20651 0.1585743,0.49047 v 0.815 q 0,0.59742 -0.3318996,0.92563 -0.3282119,0.32452 -0.9219434,0.32452 z"
         id="text376"
         style="font-size:7.55256px;font-family:Bahnschrift;-inkscape-font-specification:'Bahnschrift, @wght=700';font-variation-settings:'wght' 700;stroke-width:1.5"
         aria-label="13" /><path
         d="m 5.6244044,156.09664 v 5.36202 H 4.7098366 v -4.31838 l -0.6822381,0.32084 v -0.98833 l 0.667487,-0.37615 z m 1.091581,5.36202 v -0.83712 l 1.0805176,-1.88077 q 0.2470808,-0.42778 0.3614018,-0.76336 0.114321,-0.33559 0.114321,-0.58267 v -0.0701 q 0,-0.19545 -0.073755,-0.28765 -0.073756,-0.0959 -0.2360175,-0.0959 -0.1807009,0 -0.2655197,0.11801 -0.081131,0.11801 -0.081131,0.36878 v 0.19176 H 6.6864832 v -0.19176 q 0,-0.70068 0.309773,-1.04364 0.3134607,-0.34297 0.9477577,-0.34297 0.6342971,0 0.94407,0.32084 0.3134608,0.31715 0.3134608,0.9662 v 0.0701 q 0,0.29502 -0.1290721,0.68223 -0.1290721,0.38353 -0.390904,0.87401 l -0.8518756,1.60418 h 1.3644761 v 0.89981 z"
         id="text377"
         style="font-size:7.55256px;font-family:Bahnschrift;-inkscape-font-specification:'Bahnschrift, @wght=700';font-variation-settings:'wght' 700;stroke-width:1.5"
         aria-label="12" /><path
         d="m 6.1572869,142.83982 v 5.36202 H 5.2427191 v -4.31838 L 4.560481,144.2043 v -0.98833 l 0.667487,-0.37615 z m 2.5113737,0 v 5.36202 H 7.7540928 v -4.31838 l -0.6822381,0.32084 v -0.98833 l 0.667487,-0.37615 z"
         id="text378"
         style="font-size:7.55256px;font-family:Bahnschrift;-inkscape-font-specification:'Bahnschrift, @wght=700';font-variation-settings:'wght' 700;stroke-width:1.5"
         aria-label="11" /><path
         d="m 5.6059718,129.61065 v 5.36202 H 4.691404 v -4.31838 l -0.6822381,0.32084 v -0.98833 l 0.667487,-0.37615 z m 2.3749261,5.41734 q -0.5900437,0 -0.9145678,-0.33559 -0.324524,-0.33927 -0.324524,-0.95513 v -2.89122 q 0,-0.61586 0.324524,-0.95144 0.3245241,-0.33928 0.9145678,-0.33928 0.5900438,0 0.9145678,0.33928 0.3245241,0.33558 0.3245241,0.95144 v 2.89122 q 0,0.61586 -0.3245241,0.95513 -0.324524,0.33559 -0.9145678,0.33559 z m 0,-0.89982 q 0.1511987,0 0.2360175,-0.10326 0.088507,-0.10325 0.088507,-0.28764 v -2.89122 q 0,-0.18439 -0.088507,-0.28764 -0.084819,-0.10326 -0.2360175,-0.10326 -0.1475109,0 -0.2360175,0.10326 -0.088507,0.10325 -0.088507,0.28764 v 2.89122 q 0,0.18439 0.088507,0.28764 0.088507,0.10326 0.2360175,0.10326 z"
         id="text379"
         style="font-size:7.55256px;font-family:Bahnschrift;-inkscape-font-specification:'Bahnschrift, @wght=700';font-variation-settings:'wght' 700;stroke-width:1.5"
         aria-label="10" /><path
         d="m 5.797738,121.76933 0.9698844,-2.67363 0.2913341,0.13276 q -0.1253843,0.17332 -0.2950218,0.2692 -0.1659499,0.0959 -0.342963,0.0959 -0.4978494,0 -0.7744324,-0.30609 -0.2728952,-0.30977 -0.2728952,-0.874 v -0.78918 q 0,-0.6048 0.324524,-0.9367 0.3282119,-0.3319 0.9182556,-0.3319 0.5900438,0 0.9145678,0.32821 0.3245241,0.32822 0.3245241,0.93301 v 0.70436 q 0,0.4241 -0.09957,0.73387 -0.09957,0.30609 -0.228642,0.65643 l -0.7559935,2.05777 z m 0.8186857,-3.05347 q 0.162262,0 0.2507686,-0.0959 0.092194,-0.0996 0.092194,-0.2692 v -0.756 q 0,-0.18439 -0.092194,-0.2692 -0.088507,-0.0885 -0.2507686,-0.0885 -0.162262,0 -0.2544563,0.0885 -0.092194,0.0848 -0.092194,0.2692 v 0.75968 q 0,0.16964 0.092194,0.26552 0.092194,0.0959 0.2544563,0.0959 z"
         id="text380"
         style="font-size:7.55256px;font-family:Bahnschrift;-inkscape-font-specification:'Bahnschrift, @wght=700';font-variation-settings:'wght' 700;stroke-width:1.5"
         aria-label="9" /><path
         d="m 6.6145781,108.56966 q -0.3909039,0 -0.6711747,-0.13645 -0.276583,-0.14013 -0.424094,-0.40197 -0.1475109,-0.26551 -0.1475109,-0.63798 v -0.84819 q 0,-0.29133 0.1659498,-0.52366 0.1696376,-0.23233 0.472035,-0.3614 -0.276583,-0.10695 -0.4314695,-0.29503 -0.1548865,-0.18807 -0.1548865,-0.4204 v -0.75231 q 0,-0.52366 0.3134608,-0.80762 0.3171485,-0.28765 0.87769,-0.28765 0.5679171,0 0.8776901,0.28765 0.3134607,0.28396 0.3134607,0.80762 v 0.75231 q 0,0.23602 -0.1585742,0.42409 -0.1548865,0.18439 -0.4388451,0.29134 0.309773,0.12907 0.4794106,0.3614 0.1696376,0.23233 0.1696376,0.52366 v 0.84819 q 0,0.37247 -0.147511,0.63798 -0.1475109,0.26184 -0.4240939,0.40197 -0.276583,0.13645 -0.6711748,0.13645 z m 0,-0.88138 q 0.1659498,0 0.2581442,-0.0848 0.092194,-0.0848 0.092194,-0.23233 V 106.475 q 0,-0.15857 -0.092194,-0.24708 -0.092194,-0.0885 -0.2581442,-0.0885 -0.162262,0 -0.2544563,0.0885 -0.092194,0.0885 -0.092194,0.25077 v 0.89982 q 0,0.14751 0.092194,0.22864 0.095882,0.0811 0.2544563,0.0811 z m 0,-2.41918 q 0.1511987,0 0.2323298,-0.0959 0.084819,-0.0996 0.084819,-0.26921 v -0.61217 q 0,-0.15488 -0.084819,-0.24339 -0.081131,-0.0885 -0.2323298,-0.0885 -0.1475109,0 -0.2323297,0.0885 -0.084819,0.0885 -0.084819,0.24708 v 0.61586 q 0,0.16964 0.084819,0.26552 0.084819,0.0922 0.2323297,0.0922 z"
         id="text381"
         style="font-size:7.55256px;font-family:Bahnschrift;-inkscape-font-specification:'Bahnschrift, @wght=700';font-variation-settings:'wght' 700;stroke-width:1.5"
         aria-label="8" /><path
         d="m 7.8370732,89.923149 v 0.674863 l -0.9625088,4.68716 H 5.9710599 L 6.9077543,90.734459 H 6.2660818 v 0.623234 H 5.3920795 v -1.434544 z"
         id="text382"
         style="font-size:7.55256px;font-family:Bahnschrift;-inkscape-font-specification:'Bahnschrift, @wght=700';font-variation-settings:'wght' 700;stroke-width:1.5"
         aria-label="7" /><path
         d="m 6.6127359,82.081818 q -0.5900437,0 -0.9145678,-0.328211 -0.324524,-0.3319 -0.324524,-0.936695 v -0.700677 q 0,-0.424094 0.084819,-0.719116 0.088507,-0.295022 0.2249542,-0.630609 l 0.8408123,-2.098343 h 0.9735722 l -1.0362644,2.673636 -0.2913341,-0.13276 q 0.2618319,-0.36509 0.6269215,-0.36509 0.5015372,0 0.7781202,0.309773 0.2802708,0.306085 0.2802708,0.870315 v 0.789183 q 0,0.601107 -0.3282119,0.936695 -0.324524,0.331899 -0.9145678,0.331899 z m 0,-0.881377 q 0.1659498,0 0.2544564,-0.0922 0.092194,-0.09219 0.092194,-0.276583 v -0.741242 q 0,-0.173326 -0.092194,-0.26552 -0.088507,-0.09588 -0.2544564,-0.09588 -0.1585742,0 -0.2507685,0.09588 -0.092194,0.09588 -0.092194,0.269207 v 0.737555 q 0,0.184389 0.092194,0.276583 0.092194,0.0922 0.2507685,0.0922 z"
         id="text383"
         style="font-size:7.55256px;font-family:Bahnschrift;-inkscape-font-specification:'Bahnschrift, @wght=700';font-variation-settings:'wght' 700;stroke-width:1.5"
         aria-label="6" /><path
         d="m 6.6090482,68.854496 q -0.5716049,0 -0.8887534,-0.309773 Q 5.4031463,68.23495 5.4031463,67.67072 v -0.24708 h 0.9145678 v 0.24708 q 0,0.13276 0.077443,0.206516 0.077443,0.07376 0.2138909,0.07376 0.1401354,0 0.2212664,-0.07744 0.081131,-0.07744 0.081131,-0.213891 v -1.239092 q 0,-0.125384 -0.06638,-0.191764 -0.06638,-0.07007 -0.1880764,-0.07007 -0.114321,0 -0.1807009,0.06269 -0.062692,0.059 -0.059004,0.173326 H 5.5211551 v -2.957594 h 2.260605 v 0.899816 H 6.4357229 v 1.117396 q 0.1180087,-0.09957 0.2507685,-0.151199 0.1364477,-0.05163 0.2728953,-0.05163 0.4130306,0 0.6379848,0.306085 0.2286419,0.306085 0.2286419,0.862939 v 1.239092 q 0,0.567917 -0.3208363,0.881378 -0.3171485,0.313461 -0.8961289,0.313461 z"
         id="text384"
         style="font-size:7.55256px;font-family:Bahnschrift;-inkscape-font-specification:'Bahnschrift, @wght=700';font-variation-settings:'wght' 700;stroke-width:1.5"
         aria-label="5" /><path
         d="m 5.1818841,54.771613 v -0.848188 l 1.106332,-3.687773 h 0.9588211 l -1.0583909,3.64352 H 8.047284 v 0.892441 z m 1.6816247,0.826061 V 52.64008 h 0.8850656 v 2.957594 z"
         id="text385"
         style="font-size:7.55256px;font-family:Bahnschrift;-inkscape-font-specification:'Bahnschrift, @wght=700';font-variation-settings:'wght' 700;stroke-width:1.5"
         aria-label="4" /><path
         d="m 6.6237972,42.423824 q -0.3982796,0 -0.6859259,-0.143823 Q 5.6539128,42.136178 5.5027141,41.86697 5.3515154,41.594075 5.3515154,41.210547 v -0.328212 h 0.9219433 v 0.309773 q 0,0.158574 0.092194,0.243393 0.092194,0.08482 0.2581442,0.08482 0.1585742,0 0.2470808,-0.09219 0.092194,-0.09219 0.092194,-0.258144 v -0.763369 q 0,-0.184389 -0.092194,-0.280271 -0.092194,-0.09957 -0.2544564,-0.09957 H 6.3250875 v -0.899816 h 0.2913341 q 0.1216965,0 0.1880765,-0.08851 0.070068,-0.08851 0.070068,-0.250769 V 38.12388 q 0,-0.129072 -0.06638,-0.19914 -0.06638,-0.07007 -0.1843886,-0.07007 -0.1253843,0 -0.1991398,0.07375 -0.070068,0.07007 -0.070068,0.202828 v 0.365089 H 5.4363341 v -0.365089 q 0,-0.56423 0.3171486,-0.870315 0.3171485,-0.309773 0.8850656,-0.309773 0.5494782,0 0.8481878,0.309773 0.3023975,0.306085 0.3023975,0.866627 v 0.715428 q 0,0.206515 -0.1364477,0.39828 -0.1327598,0.188076 -0.3761528,0.328211 0.2839585,0.09219 0.4425328,0.29871 0.1585742,0.206515 0.1585742,0.490474 v 0.814998 q 0,0.597419 -0.3318996,0.925631 -0.3282118,0.324524 -0.9219433,0.324524 z"
         id="text386"
         style="font-size:7.55256px;font-family:Bahnschrift;-inkscape-font-specification:'Bahnschrift, @wght=700';font-variation-settings:'wght' 700;stroke-width:1.5"
         aria-label="3" /><path
         d="m 5.386542,29.167 v -0.837125 l 1.0805176,-1.880764 q 0.2470808,-0.427782 0.3614017,-0.763369 0.114321,-0.335588 0.114321,-0.582668 v -0.07007 q 0,-0.195452 -0.073755,-0.287646 -0.073755,-0.09588 -0.2360175,-0.09588 -0.1807009,0 -0.2655197,0.118009 -0.081131,0.118009 -0.081131,0.368778 v 0.191764 H 5.3570398 v -0.191764 q 0,-0.700677 0.3097729,-1.04364 0.3134608,-0.342963 0.9477578,-0.342963 0.634297,0 0.94407,0.320836 0.3134607,0.317149 0.3134607,0.966197 v 0.07007 q 0,0.295022 -0.1290721,0.682238 -0.129072,0.383529 -0.3909039,0.874003 L 6.5002495,28.267183 H 7.8647257 V 29.167 Z"
         id="text387"
         style="font-size:7.55256px;font-family:Bahnschrift;-inkscape-font-specification:'Bahnschrift, @wght=700';font-variation-settings:'wght' 700;stroke-width:1.5"
         aria-label="2" /><path
         d="m 7.4129784,10.548152 v 5.362022 H 6.4984106 v -4.318382 l -0.6822381,0.320836 v -0.988323 l 0.667487,-0.376153 z"
         id="text388"
         style="font-size:7.55256px;font-family:Bahnschrift;-inkscape-font-specification:'Bahnschrift, @wght=700';font-variation-settings:'wght' 700;stroke-width:1.5"
         aria-label="1" /><path
         d="m 198.43751,207.78841 q -0.43147,0 -0.74125,-0.14751 -0.30608,-0.1512 -0.46834,-0.43147 -0.16227,-0.28396 -0.16227,-0.68224 v -2.95022 q 0,-0.40196 0.16227,-0.68224 0.16226,-0.28395 0.46834,-0.43146 0.30978,-0.14752 0.74125,-0.14752 0.43147,0 0.73755,0.14752 0.30977,0.14751 0.47204,0.43146 0.16226,0.28028 0.16226,0.68224 v 2.95022 q 0,0.39828 -0.16226,0.68224 -0.16227,0.28027 -0.47204,0.43147 -0.30608,0.14751 -0.73755,0.14751 z m 0,-0.91457 q 0.21389,0 0.32821,-0.12169 0.11801,-0.1217 0.11801,-0.34297 v -2.72157 q 0,-0.21758 -0.11801,-0.33928 -0.11432,-0.1217 -0.32821,-0.1217 -0.21021,0 -0.32822,0.1217 -0.11432,0.1217 -0.11432,0.33928 v 2.72157 q 0,0.22127 0.11432,0.34297 0.11801,0.12169 0.32822,0.12169 z"
         id="text389"
         style="font-size:7.55256px;font-family:Bahnschrift;-inkscape-font-specification:'Bahnschrift, @wght=700';font-variation-settings:'wght' 700;stroke-width:1.5"
         aria-label="O" /><path
         d="m 183.85124,207.73125 v -5.35833 h 0.71911 l 1.26122,3.57714 -0.0996,0.14382 v -3.72096 h 0.83344 v 5.35833 h -0.72649 l -1.24647,-3.37062 0.0959,-0.14751 v 3.51813 z"
         id="text390"
         style="font-size:7.55256px;font-family:Bahnschrift;-inkscape-font-specification:'Bahnschrift, @wght=700';font-variation-settings:'wght' 700;stroke-width:1.5"
         aria-label="N" /><path
         d="m 171.97918,205.28441 0.91088,-2.91334 h 0.85556 v 5.36202 h -0.815 V 203.99 l 0.0553,0.23602 -0.77812,2.55932 h -0.45729 l -0.77812,-2.48556 0.0738,-0.30978 v 3.74309 h -0.83344 v -5.36202 h 0.87769 z"
         id="text391"
         style="font-size:7.55256px;font-family:Bahnschrift;-inkscape-font-specification:'Bahnschrift, @wght=700';font-variation-settings:'wght' 700;stroke-width:1.5"
         aria-label="M" /><path
         d="m 157.59573,207.73309 v -5.36202 h 0.91457 v 5.36202 z m 0.37615,0 v -0.87769 h 1.9324 v 0.87769 z"
         id="text392"
         style="font-size:7.55256px;font-family:Bahnschrift;-inkscape-font-specification:'Bahnschrift, @wght=700';font-variation-settings:'wght' 700;stroke-width:1.5"
         aria-label="L" /><path
         d="m 144.76115,206.88122 v -1.62631 l 1.04364,-2.88384 h 1.03258 z m -0.72649,0.85187 v -5.36202 h 0.91457 v 5.36202 z m 1.96927,0 -0.90719,-2.92809 0.62692,-0.54948 1.28335,3.47757 z"
         id="text393"
         style="font-size:7.55256px;font-family:Bahnschrift;-inkscape-font-specification:'Bahnschrift, @wght=700';font-variation-settings:'wght' 700;stroke-width:1.5"
         aria-label="K" /><path
         d="m 132.23082,207.76076 q -0.34665,0 -0.63798,-0.14382 -0.29134,-0.14383 -0.47572,-0.40566 l 0.60848,-0.63429 q 0.0959,0.12538 0.20651,0.19176 0.11064,0.0664 0.23602,0.0664 0.18808,0 0.28396,-0.0959 0.0996,-0.0996 0.0996,-0.29134 v -4.10449 h 0.91457 v 4.21513 q 0,0.5716 -0.32453,0.88875 -0.32452,0.31346 -0.91088,0.31346 z"
         id="text394"
         style="font-size:7.55256px;font-family:Bahnschrift;-inkscape-font-specification:'Bahnschrift, @wght=700';font-variation-settings:'wght' 700;stroke-width:1.5"
         aria-label="J" /><path
         d="m 119.5198,202.37107 v 5.36202 h -0.91457 v -5.36202 z"
         id="text395"
         style="font-size:7.55256px;font-family:Bahnschrift;-inkscape-font-specification:'Bahnschrift, @wght=700';font-variation-settings:'wght' 700;stroke-width:1.5"
         aria-label="I" /><path
         d="m 106.19475,207.73309 v -5.36202 h 0.91457 v 5.36202 z m -1.63737,0 v -5.36202 h 0.91457 v 5.36202 z m 0.43516,-2.21266 v -0.85925 h 1.79595 v 0.85925 z"
         id="text396"
         style="font-size:7.55256px;font-family:Bahnschrift;-inkscape-font-specification:'Bahnschrift, @wght=700';font-variation-settings:'wght' 700;stroke-width:1.5"
         aria-label="H" /><path
         d="m 92.596815,204.83819 h 1.346037 v 1.60418 q 0,0.4241 -0.158574,0.72649 -0.154887,0.29871 -0.453596,0.46098 -0.295022,0.15857 -0.715428,0.15857 -0.424094,0 -0.726492,-0.15489 -0.302397,-0.15488 -0.464659,-0.44622 -0.158574,-0.29502 -0.158574,-0.70805 v -2.78058 q 0,-0.43516 0.154886,-0.74493 0.158574,-0.30977 0.457284,-0.47204 0.29871,-0.16595 0.715428,-0.16595 0.413031,0 0.704365,0.15858 0.291334,0.15857 0.44622,0.46097 0.154887,0.29871 0.154887,0.7228 v 0.41303 h -0.940382 v -0.41303 q 0,-0.19545 -0.09957,-0.30608 -0.09957,-0.11063 -0.26552,-0.11063 -0.184389,0 -0.291334,0.12538 -0.106945,0.1217 -0.106945,0.3319 v 2.78058 q 0,0.17333 0.110633,0.27658 0.114321,0.10326 0.309773,0.10326 0.202827,0 0.317148,-0.10694 0.114321,-0.11064 0.114321,-0.3024 v -0.73387 h -0.449908 z"
         id="text397"
         style="font-size:7.55256px;font-family:Bahnschrift;-inkscape-font-specification:'Bahnschrift, @wght=700';font-variation-settings:'wght' 700;stroke-width:1.5"
         aria-label="G" /><path
         d="m 78.277095,207.44789 v -5.36202 h 0.914568 v 5.36202 z m 0.409343,-2.17579 v -0.87769 h 1.792258 v 0.87769 z m 0,-2.30854 v -0.87769 h 1.976646 v 0.87769 z"
         id="text398"
         style="font-size:7.55256px;font-family:Bahnschrift;-inkscape-font-specification:'Bahnschrift, @wght=700';font-variation-settings:'wght' 700;stroke-width:1.5"
         aria-label="F" /><path
         d="m 64.9547,207.73309 v -5.36202 h 0.914567 v 5.36202 z m 0.405655,0 v -0.89244 h 1.976646 v 0.89244 z m 0,-2.22004 v -0.88875 h 1.792257 v 0.88875 z m 0,-2.24954 v -0.89244 h 1.976646 v 0.89244 z"
         id="text399"
         style="font-size:7.55256px;font-family:Bahnschrift;-inkscape-font-specification:'Bahnschrift, @wght=700';font-variation-settings:'wght' 700;stroke-width:1.5"
         aria-label="E" /><path
         d="m 52.223377,207.73309 v -0.87769 h 0.685925 q 0.184389,0 0.283959,-0.11063 0.09957,-0.11432 0.09957,-0.31715 v -2.75108 q 0,-0.20651 -0.09957,-0.31715 -0.09957,-0.11063 -0.283959,-0.11063 h -0.685925 v -0.87769 h 0.77812 q 0.57898,0 0.896129,0.31715 0.320836,0.31346 0.320836,0.88506 v 2.9576 q 0,0.37984 -0.143823,0.64905 -0.143823,0.2692 -0.416719,0.41303 -0.272895,0.14013 -0.660111,0.14013 z m -0.608483,0 v -5.36202 h 0.914568 v 5.36202 z"
         id="text400"
         style="font-size:7.55256px;font-family:Bahnschrift;-inkscape-font-specification:'Bahnschrift, @wght=700';font-variation-settings:'wght' 700;stroke-width:1.5"
         aria-label="D" /><path
         d="m 39.68751,207.78841 q -0.405655,0 -0.693301,-0.15857 -0.287646,-0.16227 -0.442533,-0.46835 -0.151199,-0.30609 -0.151199,-0.73756 v -2.7437 q 0,-0.43516 0.151199,-0.73755 0.154887,-0.30609 0.442533,-0.46466 0.287646,-0.16227 0.693301,-0.16227 0.409343,0 0.69699,0.16227 0.287646,0.15857 0.438845,0.46466 0.151198,0.30608 0.151198,0.74124 v 0.43147 h -0.925631 v -0.43147 q 0,-0.13645 -0.04057,-0.23233 -0.04057,-0.0996 -0.121697,-0.15489 -0.08113,-0.0553 -0.19914,-0.0553 -0.165949,0 -0.261832,0.118 -0.09588,0.11433 -0.09588,0.32084 v 2.7437 q 0,0.20652 0.09588,0.32084 0.09588,0.11432 0.261832,0.11432 0.177013,0 0.269208,-0.11432 0.09219,-0.11801 0.09219,-0.32452 v -0.43147 h 0.925631 v 0.43147 q 0,0.43515 -0.151198,0.74124 -0.151199,0.30608 -0.438845,0.46835 -0.287647,0.15857 -0.69699,0.15857 z"
         id="text401"
         style="font-size:7.55256px;font-family:Bahnschrift;-inkscape-font-specification:'Bahnschrift, @wght=700';font-variation-settings:'wght' 700;stroke-width:1.5"
         aria-label="C" /><path
         d="m 25.680226,207.73309 v -0.85925 h 0.803934 q 0.169638,0 0.261832,-0.0885 0.09588,-0.0922 0.09588,-0.25446 v -0.71912 q 0,-0.19914 -0.09588,-0.30977 -0.09588,-0.11063 -0.276583,-0.11063 h -0.789183 v -0.84819 h 0.767057 q 0.162262,0 0.250768,-0.10326 0.09219,-0.10326 0.09219,-0.29502 v -0.57529 q 0,-0.16226 -0.09219,-0.25077 -0.08851,-0.0922 -0.247081,-0.0922 h -0.770744 v -0.85556 h 0.862939 q 0.54579,0 0.8445,0.29133 0.302397,0.28765 0.302397,0.815 v 0.5753 q 0,0.36509 -0.206515,0.6011 -0.202828,0.23233 -0.575293,0.29502 0.405655,0.0553 0.626922,0.29871 0.224954,0.2434 0.224954,0.63799 v 0.73018 q 0,0.53104 -0.29871,0.82606 -0.295022,0.29133 -0.837124,0.29133 z m -0.523664,0 v -5.36202 h 0.918255 v 5.36202 z"
         id="text402"
         style="font-size:7.55256px;font-family:Bahnschrift;-inkscape-font-specification:'Bahnschrift, @wght=700';font-variation-settings:'wght' 700;stroke-width:1.5"
         aria-label="B" /><path
         d="m 11.628685,207.73309 1.279658,-5.36202 h 0.641672 l 1.279658,5.36202 H 13.92248 l -0.693301,-3.51444 -0.693301,3.51444 z M 12.499,206.89966 v -0.85557 h 1.460358 v 0.85557 z"
         id="text403"
         style="font-size:7.55256px;font-family:Bahnschrift;-inkscape-font-specification:'Bahnschrift, @wght=700';font-variation-settings:'wght' 700;stroke-width:1.5"
         aria-label="A" /></g><g
       id="g416"
       inkscape:label="黑棋"
       transform="translate(14.751261,30.721313)"
       inkscape:export-filename="black_stone.svg"
       inkscape:export-xdpi="96"
       inkscape:export-ydpi="96"><circle
         style="font-variation-settings:'wght' 700;mix-blend-mode:normal;fill:#000000;fill-opacity:1;fill-rule:nonzero;stroke:none;stroke-width:1.88906;stroke-dasharray:none;stroke-opacity:1;filter:url(#filter416)"
         id="ellipse412"
         cx="274.4588"
         cy="51.562805"
         inkscape:label="阴影"
         r="6.6145835"
         transform="matrix(-0.7940506,0,0,-0.7940506,448.57173,94.14823)" /><circle
         style="font-variation-settings:'wght' 700;fill:#000000;fill-opacity:1;fill-rule:nonzero;stroke:none;stroke-width:1.5;stroke-dasharray:none;stroke-opacity:1"
         id="path403"
         cx="230.63757"
         cy="53.204777"
         r="5.2916665"
         inkscape:label="棋子" /><ellipse
         style="font-variation-settings:'wght' 700;fill:url(#radialGradient410);fill-opacity:1;fill-rule:nonzero;stroke:none;stroke-width:1.50001;stroke-dasharray:none;stroke-opacity:1"
         id="path409"
         cx="125.46394"
         cy="196.96504"
         rx="3.3055952"
         ry="1.7532568"
         transform="rotate(-45)"
         inkscape:label="高光" /></g><g
       id="g418"
       inkscape:label="白棋"
       transform="translate(13.234537,7.1939895)"
       inkscape:export-filename="white_stone.svg"
       inkscape:export-xdpi="96"
       inkscape:export-ydpi="96"><circle
         style="font-variation-settings:'wght' 700;mix-blend-mode:normal;fill:#646464;fill-opacity:1;fill-rule:nonzero;stroke:none;stroke-width:1.88906;stroke-dasharray:none;stroke-opacity:1;filter:url(#filter416)"
         id="circle417"
         cx="274.4588"
         cy="51.562805"
         inkscape:label="阴影"
         r="6.6145835"
         transform="matrix(-0.7940506,0,0,-0.7940506,448.57173,94.14823)" /><circle
         style="font-variation-settings:'wght' 700;fill:#c3c3c3;fill-opacity:1;fill-rule:nonzero;stroke:none;stroke-width:1.5;stroke-dasharray:none;stroke-opacity:1"
         id="circle418"
         cx="230.63757"
         cy="53.204777"
         r="5.2916665"
         inkscape:label="棋子" /><ellipse
         style="font-variation-settings:'wght' 700;fill:url(#radialGradient418);fill-opacity:1;fill-rule:nonzero;stroke:none;stroke-width:1.50001;stroke-dasharray:none;stroke-opacity:1"
         id="ellipse418"
         cx="125.46394"
         cy="196.96504"
         rx="3.3055952"
         ry="1.7532568"
         transform="rotate(-45)"
         inkscape:label="高光" /></g></g></svg>
